<?xml version="1.0" encoding="UTF-8"?>
<svg id="Layer_1" data-name="Layer 1" xmlns="http://www.w3.org/2000/svg" viewBox="0 0 721 474.22">
  <defs>
    <style>
      .cls-1 {
        fill: #f4c540;
        stroke: #333;
        stroke-miterlimit: 10;
      }
    </style>
  </defs>
  <path class="cls-1" d="M612.69.5H108.31C48.77.5.5,48.77.5,108.31v257.59c0,59.54,48.27,107.81,107.81,107.81h504.38c59.54,0,107.81-48.27,107.81-107.81V108.31c0-59.54-48.27-107.81-107.81-107.81ZM303.82,172.34h-103.86v50.83h89.65v36.33h-89.65v91.26h-43.36v-214.75h147.22v36.33ZM551.5,350.76h-40.28v-169.04l-42.63,169.04h-41.75l-42.48-169.04v169.04h-40.28v-214.75h64.89l38.96,146.48,38.53-146.48h65.04v214.75Z"/>
</svg>