<?xml version="1.0" encoding="UTF-8"?>
<svg id="Layer_1" data-name="Layer 1" xmlns="http://www.w3.org/2000/svg" viewBox="0 0 721 474.24">
  <defs>
    <style>
      .cls-1 {
        fill: #d45c5c;
        stroke: #333;
        stroke-miterlimit: 10;
      }
    </style>
  </defs>
  <path class="cls-1" d="M612.9.5H108.1C48.67.5.5,48.67.5,108.1v258.04c0,59.43,48.17,107.6,107.6,107.6h504.8c59.43,0,107.6-48.17,107.6-107.6V108.1c0-59.43-48.17-107.6-107.6-107.6h0ZM323.63,316.78c-9.21,8.79-22.56,16.53-40.04,23.22s-35.19,10.03-53.11,10.03c-22.78,0-42.64-4.71-59.58-14.14-16.94-9.42-29.67-22.9-38.18-40.43-8.52-17.53-12.78-36.6-12.78-57.2,0-22.36,4.75-42.24,14.26-59.62,9.51-17.38,23.42-30.71,41.75-39.99,13.97-7.13,31.35-10.69,52.15-10.69,27.04,0,48.16,5.59,63.36,16.77s24.98,26.64,29.34,46.36l-43.68,8.06c-3.07-10.55-8.84-18.87-17.31-24.98-8.47-6.1-19.04-9.16-31.72-9.16-19.22,0-34.49,6.01-45.83,18.02-11.34,12.01-17.01,29.83-17.01,53.47,0,25.49,5.74,44.6,17.23,57.35,11.49,12.74,26.54,19.12,45.16,19.12,9.21,0,18.45-1.78,27.71-5.35,9.26-3.56,17.21-7.88,23.85-12.96v-27.25h-50.36v-36.18h94.79v85.55h0ZM569.81,346.37h-40.86v-169.04l-43.23,169.04h-42.34l-43.09-169.04v169.04h-40.86v-214.75h65.82l39.52,146.48,39.07-146.48h65.96v214.75h.01Z"/>
</svg>