<?xml version="1.0" encoding="UTF-8"?>
<svg id="Layer_1" data-name="Layer 1" xmlns="http://www.w3.org/2000/svg" viewBox="0 0 709.54 258.39">
  <defs>
    <style>
      .cls-1 {
        fill: #9cd365;
      }

      .cls-2 {
        fill: none;
        stroke: #9cd365;
        stroke-miterlimit: 10;
        stroke-width: 40px;
      }
    </style>
  </defs>
  <path class="cls-2" d="M473.65,129.11h0c59.62,0,107.94-48.85,107.94-109.11h0"/>
  <path class="cls-2" d="M689.53,129.11h0c-59.62,0-107.94,48.85-107.94,109.11h0"/>
  <path class="cls-2" d="M156.26,20.01h0c0,60.26-48.33,109.11-107.94,109.11h0"/>
  <ellipse class="cls-2" cx="581.6" cy="129.11" rx="107.94" ry="109.11"/>
  <line class="cls-2" x1="282.17" y1="129.11" x2="26.85" y2="131.19"/>
  <path class="cls-2" d="M262.76,142.31c.48-4.15,1.43-8.9,1.43-13.18,0-60.26-48.33-109.11-107.94-109.11s-107.94,48.85-107.94,109.11,48.33,109.11,107.94,109.11c42.74,0,79.66-25.1,97.15-61.52"/>
  <rect class="cls-1" x="309.34" y="4.45" width="40.2" height="253.94" rx="11.42" ry="11.42"/>
  <path class="cls-1" d="M384.58,163.52h13.99c7.23,0,13.1,5.87,13.1,13.1v132.78c0,1.96-1.59,3.54-3.54,3.54h-33.11c-1.96,0-3.54-1.59-3.54-3.54v-132.78c0-7.23,5.87-13.1,13.1-13.1Z" transform="translate(629.81 -153.34) rotate(90)"/>
  <rect class="cls-1" y="110.81" width="59.82" height="40.31" rx="10.92" ry="10.92"/>
</svg>