<?xml version="1.0" encoding="UTF-8"?>
<svg id="Layer_1" data-name="Layer 1" xmlns="http://www.w3.org/2000/svg" viewBox="0 0 721.5 475.22">
  <defs>
    <style>
      .cls-1 {
        fill: #6dcde4;
        stroke: #333;
        stroke-miterlimit: 10;
      }
    </style>
  </defs>
  <path class="cls-1" d="M609.28.5H112.22C50.52.5.5,50.52.5,112.22v250.78c0,61.7,50.02,111.72,111.72,111.72h497.06c61.7,0,111.72-50.02,111.72-111.72V112.22c0-61.7-50.02-111.72-111.72-111.72ZM210.76,314.17c-6.09,10.64-14.61,18.71-25.55,24.21-10.94,5.5-24.73,8.25-41.37,8.25-29.22,0-49.46-6.44-60.71-19.32-11.25-12.88-17.62-29.24-19.1-49.09l50.51-3.62c1.09,9.39,3.32,16.55,6.68,21.46,5.47,7.96,13.28,11.94,23.44,11.94,7.58,0,13.42-2.03,17.52-6.1,4.1-4.07,6.15-8.79,6.15-14.15s-1.95-9.66-5.86-13.68c-3.91-4.02-12.97-7.82-27.19-11.4-23.28-5.99-39.89-13.95-49.81-23.88-10-9.93-15-22.58-15-37.96,0-10.1,2.56-19.65,7.68-28.64,5.12-8.99,12.81-16.05,23.09-21.19,10.27-5.14,24.36-7.71,42.25-7.71,21.95,0,38.69,4.67,50.22,14.02,11.52,9.35,18.38,24.21,20.57,44.6l-50.04,3.35c-1.33-8.85-4.12-15.29-8.38-19.32-4.26-4.02-10.14-6.04-17.64-6.04-6.17,0-10.82,1.5-13.95,4.49-3.13,3-4.69,6.64-4.69,10.93,0,3.13,1.29,5.95,3.87,8.45,2.5,2.59,8.44,5.01,17.81,7.24,23.2,5.72,39.83,11.51,49.87,17.37,10.04,5.86,17.34,13.12,21.92,21.8,4.57,8.68,6.86,18.38,6.86,29.11,0,12.61-3.05,24.24-9.14,34.88ZM415.03,314.98c-15.7,12.25-29.59,20.59-41.66,25.02s-26.39,6.64-42.95,6.64c-20.39,0-37.01-3.98-49.87-11.94-12.85-7.96-22.81-19.81-29.88-35.55-7.07-15.74-10.61-33.8-10.61-54.19,0-21.46,3.87-40.13,11.6-56,7.73-15.87,19.06-27.92,33.99-36.15,11.64-6.35,27.31-9.52,46.99-9.52s33.18,1.97,42.6,5.9c9.41,3.94,17.23,10.04,23.44,18.31,6.21,8.27,10.88,18.76,14,31.46l-51.21,10.46c-2.11-7.42-5.68-13.1-10.72-17.04-5.04-3.93-11.47-5.9-19.28-5.9-11.64,0-20.92,4.63-27.83,13.88-6.91,9.26-10.37,23.9-10.37,43.93,0,21.28,3.5,36.49,10.49,45.61,6.99,9.12,16.74,13.68,29.24,13.68,5.94,0,11.6-.98,16.99-2.95,5.39-1.97,11.56-5.32,18.52-10.06v-18.51h-35.51v-40.91h82.04v83.84ZM639.22,343.28h-43.48v-149.97l-33.5,149.97h-39.36l-33.44-149.97v149.97h-43.48v-196.65h69.82l26.92,119.65,26.73-119.65h69.78v196.65Z"/>
</svg>